<svg width="704" height="627" viewBox="0 0 704 627" fill="none" xmlns="http://www.w3.org/2000/svg">
<path fill-rule="evenodd" clip-rule="evenodd" d="M348.645 31.2932C425.024 29.6256 506.147 21.3649 570.101 59.2614C635.429 97.9721 672.341 166.013 691.683 234.564C710.161 300.052 709.341 371.725 675.222 431.829C643.644 487.457 577.533 516.229 515.859 544.292C463.363 568.179 407.17 575.904 348.645 580.429C284.115 585.417 218.292 596.172 159.345 571.853C92.252 544.173 19.0056 502.732 2.45888 437.605C-13.9743 372.926 56.5069 319.348 79.1544 256.231C101.789 193.15 80.9767 113.694 134.804 68.7655C189.556 23.0653 274.246 32.9176 348.645 31.2932Z" fill="url(#paint0_linear)"/>
<path fill-rule="evenodd" clip-rule="evenodd" d="M348.645 1.34996C423.069 -8.95715 491.687 41.6847 547.375 87.622C598.631 129.903 625.808 187.909 647.235 247.658C668.667 307.42 697.825 372.706 670.294 430.377C643.313 486.896 565.82 501.932 509.449 536.292C455.838 568.969 413.106 630.251 348.645 626.431C284.258 622.615 247.55 559.908 202.422 518.095C165.556 483.938 136.443 447.378 110.497 405.778C77.2006 352.394 12.6234 301.025 30.0764 241.773C47.4348 182.842 137.911 176.191 189.618 137.168C246.992 93.8676 274.85 11.5698 348.645 1.34996Z" fill="url(#paint1_linear)"/>
<path fill-rule="evenodd" clip-rule="evenodd" d="M357.189 43.7936C403.731 37.0718 459.081 29.829 496.286 55.3692C535.122 82.0299 520.66 139.642 548.728 175.282C574.321 207.779 632.124 214.754 650.296 250.924C668.441 287.039 656.696 329.609 645.478 367.848C634.417 405.55 612.846 439.713 585.864 470.554C558.626 501.688 526.954 529.951 487.542 548.374C447.445 567.117 396.498 583.318 351.667 577.06C307.424 570.883 284.069 534.357 245.318 514.557C209.57 496.293 168.686 487.857 136.709 464.795C100.726 438.843 59.9222 411.647 47.7847 372.095C35.6362 332.506 57.7145 291.583 71.5391 252.423C84.6493 215.287 96.9952 176.66 126.883 148.041C156.159 120.009 199.988 110.015 238.445 92.6077C277.788 74.7988 313.54 50.0976 357.189 43.7936Z" fill="url(#paint2_linear)"/>
<defs>
<linearGradient id="paint0_linear" x1="0" y1="308.263" x2="703.717" y2="308.263" gradientUnits="userSpaceOnUse">
<stop stop-color="#5EE7DF"/>
<stop offset="1" stop-color="#B490CA"/>
</linearGradient>
<linearGradient id="paint1_linear" x1="27.1372" y1="313.301" x2="681.515" y2="313.301" gradientUnits="userSpaceOnUse">
<stop stop-color="#30CFD0"/>
<stop offset="1" stop-color="#330867"/>
</linearGradient>
<linearGradient id="paint2_linear" x1="44.2622" y1="307.927" x2="659.703" y2="307.927" gradientUnits="userSpaceOnUse">
<stop stop-color="#F093FB"/>
<stop offset="1" stop-color="#F5576C"/>
</linearGradient>
</defs>
</svg>
